# xmcd
#
# Track frame offsets:
#	150
#	20090
#	37785
#	54372
#	74270
#	88447
#	103812
#	121125
#	137357
#	157187
#
# Disc length: 2481 seconds
# Revision: 3
# Processed by: cddbd v1.5.2PL0 Copyright (c) Steve Scherf et al.
# Submitted via: dBpowerAMP V12.0
#
DISCID=8409af0a
DTITLE=Benny Goodman Quartet - Together Again ed2002 (Bluebird First Edition, BMG, RCA 09026-63881-2)
DYEAR=1964
DGENRE=Jazz
TTITLE0=Seven Come Eleven
TTITLE1=Say It Isn't So
TTITLE2=I've Found A New Baby
TTITLE3=Somebody Loves Me
TTITLE4=Who Cares
TTITLE5=Runnin' Wild
TTITLE6=I Got It Bad (And That Ain't Good)
TTITLE7=Dearest
TTITLE8=I'll Get By (As Long As I Have You)
TTITLE9=Four Once More
EXTD=
EXTT0=
EXTT1=
EXTT2=
EXTT3=
EXTT4=
EXTT5=
EXTT6=
EXTT7=
EXTT8=
EXTT9=
PLAYORDER=
